<?xml version="1.0" encoding="utf-8"?>
<!-- Generator: Adobe Illustrator 21.0.0, SVG Export Plug-In . SVG Version: 6.00 Build 0)  -->
<svg version="1.1" xmlns="http://www.w3.org/2000/svg" xmlns:xlink="http://www.w3.org/1999/xlink" x="0px" y="0px"
	 viewBox="0 0 2000 2000" style="enable-background:new 0 0 2000 2000;" xml:space="preserve">
<style type="text/css">
	.st0{fill:#FFFFFF;}
	.st1{fill:#D1DEE5;}
	.st2{fill:none;}
	.st3{fill:#E1E1E0;}
	.st4{fill:#9A9A99;}
	.st5{fill:#DD9F41;}
	.st6{fill:#BC8836;}
	.st7{fill:#BBB9B8;}
	
		.st8{fill:none;stroke:#A5A2A0;stroke-width:12.7425;stroke-linecap:round;stroke-linejoin:round;stroke-miterlimit:10;stroke-dasharray:38.0451;}
	.st9{fill:#FEC64A;}
	.st10{fill:#1A649B;}
	.st11{fill:#0B4B77;}
	.st12{fill:#207FC3;}
	.st13{fill:#8FB133;}
	.st14{fill:#779633;}
	.st15{fill:#A1C635;}
	.st16{fill:#C83D20;}
	.st17{fill:#A5331D;}
	.st18{fill:#F0492A;}
	.st19{fill:#DA3D36;}
	.st20{fill:#002B42;}
	.st21{fill:#C0CACE;}
	.st22{fill:#EE433C;}
	.st23{fill:#CB3832;}
	.st24{fill:#4A311A;}
	.st25{fill:#F94E4E;}
	.st26{fill:#002237;}
	.st27{fill:#FEFEFE;}
	
		.st28{fill:none;stroke:#002B42;stroke-width:7.3979;stroke-linecap:round;stroke-linejoin:round;stroke-miterlimit:10;stroke-dasharray:22.0879;}
	.st29{fill:#10405B;}
	
		.st30{fill:none;stroke:#002B42;stroke-width:12.7425;stroke-linecap:round;stroke-linejoin:round;stroke-miterlimit:10;stroke-dasharray:38.0454;}
	.st31{fill:#14598B;}
	.st32{fill:#1B68A1;}
	.st33{fill:#869096;}
	.st34{fill:#656F73;}
	.st35{fill:#C4372E;}
</style>
<g id="Layer_3">
	<rect class="st0" width="2000" height="2000"/>
</g>
<g id="Layer_2">
	<g>
		<g>
			<path class="st1" d="M1073.5,1708.1l-279.8-135.5l-63.7,2.1l39,50.4l276.6,139.5c16.1,8.1,35.6,1.1,42.9-15.3v0
				C1095.4,1733.7,1088.7,1715.5,1073.5,1708.1z"/>
			<path class="st1" d="M1091.2,1736.4c0,4.3-0.9,8.6-2.7,12.8c-7.3,16.4-26.9,23.4-42.9,15.3L769,1625l-39-50.4l29.5-0.9l18.6,24.1
				l276.6,139.5c12.4,6.2,26.8,3.5,36.2-5.6C1091.1,1733.2,1091.2,1734.8,1091.2,1736.4z"/>
			<path class="st1" d="M757.1,1573.7c0,0,4.6,16.6-10.8,22.1l-17.5-17.8c-2.8-2.9-0.5-7.7,3.6-7.3L757.1,1573.7z"/>
		</g>
		<line class="st2" x1="561.2" y1="637.4" x2="538.5" y2="624.6"/>
		
			<ellipse transform="matrix(0.3065 -0.9519 0.9519 0.3065 -957.3101 1529.9321)" class="st1" cx="571.3" cy="1421.9" rx="74.5" ry="134.7"/>
		<path class="st1" d="M1445.2,1252.2l-725.5,179.6c-13.9,3.4-28.5-0.8-38.4-11.1l-35.1-36.7c-21.2-22.1-10.5-58.8,19.2-66.2
			l725.5-179.6c13.9-3.4,28.5,0.8,38.4,11.1l35.1,36.7C1485.5,1208.2,1474.9,1244.9,1445.2,1252.2z"/>
		<polygon class="st3" points="871.8,1285 1263.6,1189.2 1171.8,1150.3 778.4,1246.1 		"/>
		<polygon class="st4" points="945.8,1248.8 915.4,1226.8 917,1137.1 945.8,1130.4 		"/>
		<path class="st5" d="M1853.5,415.8v157.9c0,5.8-1.7,11.2-4.7,15.8l-200.7-148.9c3.8-6.3,9.9-11,17.4-13l151.7-39.8
			C1835.6,383,1853.5,396.8,1853.5,415.8z"/>
		<path class="st6" d="M1848.8,589.5c-3.8,5.9-9.8,10.4-16.9,12.2l-151.7,39.9c-18.3,4.8-36.3-9-36.3-28v-158c0-5.4,1.5-10.6,4.2-15
			L1848.8,589.5z"/>
		<path class="st7" d="M1437.8,505.3l-809.1,155c-5.5,1.3-10.3,3.9-14.3,7.5l-53.3-30.3c6.9-8.4,16.4-14.6,27.6-17.2l760.5-177.8
			c6.7-1.6,14.8-1.6,23.3-0.1c21.3,3.9,39.6,17.6,50.2,36.5L1437.8,505.3z"/>
		<path class="st4" d="M623,1203.3l-37.3-6.9c-26.4-10.9-37.2-40.6-37.1-62.9l1.3-464.3c0-11.9,4.2-23,11.4-31.8l53.3,30.3
			c-6.3,5.8-10.2,14.2-10.2,23.3L623,1203.3z"/>
		<polygon class="st7" points="1147.1,1083.4 1145,1144 1144.8,1150.6 1143.1,1203.3 945.8,1248.8 945.8,1129.3 		"/>
		<polygon class="st7" points="1263.6,1189.2 1263.6,1226.2 871.5,1323.3 871.8,1285 		"/>
		<polygon class="st4" points="778.4,1246.1 778.4,1278.4 871.5,1323.3 871.8,1285 		"/>
		<path class="st8" d="M1471.8,949.1l260.8-60c17.5-4,29.9-19.6,29.9-37.5l0-176.9"/>
		<polyline class="st8" points="500.8,1183.7 212.7,1250 213.9,1049.4 		"/>
		<path class="st9" d="M1661.3,468.1v152.5c0,18.3,17.3,31.7,35,27l146.4-38.5c12.3-3.2,20.8-14.3,20.8-27V429.7
			c0-18.3-17.3-31.7-35-27l-146.4,38.4C1669.9,444.3,1661.3,455.4,1661.3,468.1z"/>
		<path class="st10" d="M295.2,744v157.9c0,5.8-1.7,11.2-4.7,15.8L89.8,768.8c3.8-6.3,9.9-11,17.4-13L258.9,716
			C277.2,711.2,295.2,725,295.2,744z"/>
		<path class="st11" d="M290.5,917.7c-3.8,5.9-9.8,10.4-16.9,12.2l-151.7,39.9c-18.3,4.8-36.3-9-36.3-28v-158c0-5.4,1.5-10.6,4.2-15
			L290.5,917.7z"/>
		<path class="st12" d="M103,796.3v152.5c0,18.3,17.3,31.7,35,27l146.4-38.5c12.3-3.2,20.8-14.3,20.8-27V757.9
			c0-18.3-17.3-31.7-35-27l-146.4,38.4C111.6,772.5,103,783.6,103,796.3z"/>
		<g>
			<path class="st13" d="M641.2,263.8v157.9c0,5.8-1.7,11.2-4.7,15.8L435.8,288.5c3.8-6.3,9.9-11,17.4-13l151.7-39.8
				C623.3,230.9,641.2,244.8,641.2,263.8z"/>
			<path class="st14" d="M636.5,437.5c-3.8,5.9-9.8,10.4-16.9,12.2l-151.7,39.9c-18.3,4.8-36.3-9-36.3-28v-158
				c0-5.4,1.5-10.6,4.2-15L636.5,437.5z"/>
			<path class="st15" d="M449,316v152.5c0,18.3,17.3,31.7,35,27L630.5,457c12.3-3.2,20.8-14.3,20.8-27V277.6c0-18.3-17.3-31.7-35-27
				L469.9,289C457.6,292.2,449,303.3,449,316z"/>
			<g>
				<path class="st14" d="M554.9,431.1c-9.7-1.6-19.1-5.7-27.2-12.4L494,390.6c-11.8-9.8-19-23.5-20.3-38.8
					c-1.3-15.2,3.4-30,13.2-41.7c5.7-6.7,15.8-7.6,22.5-1.9c6.7,5.7,7.6,15.8,1.9,22.5c-4.3,5.1-6.4,11.6-5.8,18.2
					c0.6,6.7,3.7,12.7,8.9,16.9l33.8,28.1c10.1,8.4,25.1,7.5,34-2.1l2.3-2.4c6-6.4,16.2-6.8,22.6-0.7c6.4,6,6.8,16.2,0.7,22.6
					l-2.3,2.4C592.2,428.1,573.1,434,554.9,431.1z"/>
			</g>
			<g>
				<path class="st0" d="M569.7,431.1c-9.7-1.6-19.1-5.7-27.2-12.4l-33.8-28.1c-11.8-9.8-19-23.5-20.3-38.8
					c-1.3-15.2,3.4-30,13.2-41.7c5.7-6.7,15.8-7.6,22.5-1.9c6.7,5.7,7.6,15.8,1.9,22.5c-4.3,5.1-6.4,11.6-5.8,18.2
					c0.6,6.7,3.7,12.7,8.9,16.9l33.8,28.1c10.1,8.4,25.1,7.5,34-2.1l2.3-2.4c6-6.4,16.2-6.8,22.6-0.7c6.4,6,6.8,16.2,0.7,22.6
					l-2.3,2.4C607,428.1,587.8,434,569.7,431.1z"/>
			</g>
		</g>
		<g>
			<path class="st16" d="M1410,109v157.9c0,5.8-1.7,11.2-4.7,15.8l-200.7-148.9c3.8-6.3,9.9-11,17.4-13L1373.7,81
				C1392.1,76.1,1410,90,1410,109z"/>
			<path class="st17" d="M1405.3,282.7c-3.8,5.9-9.8,10.4-16.9,12.2l-151.7,39.9c-18.3,4.8-36.3-9-36.3-28v-158
				c0-5.4,1.5-10.6,4.2-15L1405.3,282.7z"/>
			<path class="st18" d="M1217.8,161.2v152.5c0,18.3,17.3,31.7,35,27l146.4-38.5c12.3-3.2,20.8-14.3,20.8-27V122.8
				c0-18.3-17.3-31.7-35-27l-146.4,38.4C1226.4,137.4,1217.8,148.5,1217.8,161.2z"/>
		</g>
		<polyline class="st8" points="183.7,715 183.7,448.1 399.2,398.7 		"/>
		<polyline class="st8" points="1457,189.9 1754.3,121.8 1754.3,377.5 		"/>
		<line class="st8" x1="695.2" y1="349.5" x2="1156" y2="241.8"/>
		<g>
			<path class="st0" d="M881.7,1451.3c-2,0-4-0.6-5.8-1.8c-13.6-9.6-23.9-12.5-24-12.5c-5.3-1.5-8.5-7-7-12.3
				c1.4-5.3,6.9-8.5,12.2-7.1c0.5,0.1,13.6,3.7,30.3,15.5c4.5,3.2,5.6,9.4,2.4,14C887.9,1449.8,884.8,1451.3,881.7,1451.3z"/>
		</g>
		<g>
			<path class="st7" d="M699.8,1426.2c0,8.9-5.5,16.8-13.8,20l-48.7,18.5c-31.1,11.8-65.9,8.9-94.6-7.9l-114.6-67.1
				c-4.9-2.9-7.8-8.1-7.8-13.7c0-1.1,0.1-2.3,0.4-3.4c3.8-17.3,15.9-31.5,32.4-38l7.2-2.9l7.3-2.9l4.5-1.8c0.3-0.1,0.7-0.3,1-0.4
				c2.4-0.9,4.8-1.8,7.2-2.5c29.3-9.2,61.2-6.8,88.9,6.9l103,50.8c8.4,4.2,15.3,10.6,20.1,18.3
				C697.1,1407.8,699.8,1416.8,699.8,1426.2z"/>
			<path class="st4" d="M699.8,1426.2c0,8.9-5.5,16.8-13.8,20l-48.7,18.5c-31.1,11.8-65.9,8.9-94.6-7.9l-114.6-67.1
				c-4.9-2.9-7.8-8.1-7.8-13.7c0-1.1,0.1-2.3,0.4-3.4c2.1-9.4,6.6-17.9,13-24.8c0.4,0.3,0.8,0.6,1.3,0.9l114.6,67.1
				c28.7,16.8,63.5,19.7,94.6,7.9l48.7-18.5c0.7-0.3,1.3-0.5,1.9-0.8C698,1411,699.8,1418.5,699.8,1426.2z"/>
			<g>
				<path class="st20" d="M583,1390c-0.4,0.4-0.9,0.6-1.3,0.6c-0.4,0-0.9-0.1-1.2-0.5c-51.4-46.9-111.4-60.8-112-60.9
					c-0.3-0.1-0.5-0.2-0.7-0.3l4.5-1.8c0.3-0.1,0.7-0.3,1-0.4c14.5,4,65.3,20.2,109.7,60.8C583.6,1388.1,583.6,1389.2,583,1390z"/>
			</g>
			<g>
				<path class="st21" d="M538.3,1357.2c-1.9,2.8-5,4.2-8.2,4.2c-2,0-4-0.6-5.8-1.8c-13.6-9.6-23.9-12.5-24-12.5
					c-5.3-1.5-8.5-7-7-12.3c0.3-1.3,0.9-2.4,1.7-3.4c1,3.1,3.5,5.6,6.9,6.6c0.1,0,10.4,3,24,12.5c1.7,1.2,3.8,1.8,5.8,1.8
					c3,0,6-1.4,8-4C540.6,1351.2,540.2,1354.5,538.3,1357.2z"/>
				<path class="st3" d="M539.6,1348.4c-1.9,2.6-5,4-8,4c-2,0-4-0.6-5.8-1.8c-13.6-9.6-23.9-12.5-24-12.5c-3.4-0.9-5.9-3.5-6.9-6.6
					c2.4-3.1,6.5-4.7,10.5-3.6c0.6,0.1,13.6,3.7,30.3,15.5C537.7,1344.6,539,1346.4,539.6,1348.4z"/>
			</g>
		</g>
		<g>
			<ellipse class="st1" cx="1785.8" cy="1372.6" rx="154.1" ry="78"/>
			<path class="st22" d="M1765.2,1400h-86.5c-39.4,0-71.3-31.9-71.3-71.3V1116h229.1v212.7C1836.5,1368.1,1804.5,1400,1765.2,1400z"
				/>
			<path class="st19" d="M1757.7,1400h-79c-39.4,0-71.3-31.9-71.3-71.3V1116h79v212.7C1686.4,1368.1,1718.3,1400,1757.7,1400z"/>
			<path class="st23" d="M1836.5,1116c0,5.3-2.9,10.4-8.1,15c-16.8,15-58.2,25.6-106.5,25.6c-48.3,0-89.7-10.6-106.5-25.6
				c-5.2-4.7-8.1-9.7-8.1-15c0-22.4,51.3-40.6,114.6-40.6C1785.2,1075.4,1836.5,1093.6,1836.5,1116z"/>
			<path class="st24" d="M1828.4,1131c-16.8,15-58.2,25.6-106.5,25.6c-48.3,0-89.7-10.6-106.5-25.6c16.8-15,58.2-25.6,106.5-25.6
				C1770.2,1105.4,1811.6,1116,1828.4,1131z"/>
			<g>
				<path class="st22" d="M1888.4,1187v95.6c0,28.6-23.3,51.9-51.9,51.9v-29.1c12.5,0,22.8-10.2,22.8-22.8V1187
					c0-12.5-10.2-22.8-22.8-22.8v-29.1C1865.1,1135.1,1888.4,1158.4,1888.4,1187z"/>
			</g>
			<g>
				<path class="st19" d="M1873.6,1187v95.6c0,23.5-15.7,43.4-37.2,49.8v-27c12.5,0,22.8-10.2,22.8-22.8V1187
					c0-12.5-10.2-22.8-22.8-22.8v-27C1857.9,1143.6,1873.6,1163.5,1873.6,1187z"/>
			</g>
			<path class="st25" d="M1753.2,1384.4h15.1c27.6,0,49.9-22.4,49.9-49.9v-141.3c0-4.2-3.4-7.6-7.6-7.6l0,0c-4.2,0-7.6,3.4-7.6,7.6
				v141.3C1803.2,1362,1780.8,1384.4,1753.2,1384.4z"/>
			<circle class="st25" cx="1808.1" cy="1166.8" r="10.2"/>
		</g>
		<g>
			<path class="st1" d="M1715.4,1523.5c2.1-6,0.1-13.2-6.6-16.7l-276.6-142.7c-13.8-7.1-29.7-8.9-44.7-5l-488.7,126.5
				c-6.7,1.7-10.2,7.5-10.2,13.4l0,0v0.3c0,0,0,0,0,0.1v22.8c0,12.7,7.1,24.2,18.3,30l253.7,133.1c16.8,8.8,36.2,11.2,54.6,6.8
				l479.5-115.7c12.5-3,21.4-14.1,21.4-27v-26.1L1715.4,1523.5z"/>
			<path class="st26" d="M1168.2,1615.7v0.3l-289.4-146.9v22.5c0,12.3,6.9,23.5,17.8,29.2l246.4,129.3c16.3,8.5,35.1,10.9,53,6.6
				l465.6-112.3c12.2-2.9,20.7-13.7,20.7-26.2v-25.3L1168.2,1615.7z"/>
			<path class="st20" d="M1672.2,1501.4l-481.4,119.6c-14.4,3.6-29.6,1.8-42.8-5l-262-135.2c-10.8-5.6-9-21.5,2.8-24.6l474.4-122.9
				c14.6-3.8,30-2,43.4,4.9l268.5,138.6C1685.9,1482.4,1684.1,1498.5,1672.2,1501.4z"/>
			<path class="st27" d="M963.3,1485.4l194.3,98.7c16.6,8.4,35.6,10.7,53.7,6.3l392.4-94.1c10.3-2.5,11.9-16.4,2.5-21.2l-193.2-97.2
				c-16.4-8.3-35.2-10.5-53.1-6.3l-394.1,92.6C955.6,1466.6,953.9,1480.6,963.3,1485.4z"/>
			<g>
				
					<ellipse transform="matrix(6.740169e-02 -0.9977 0.9977 6.740169e-02 -275.4746 2659.4248)" class="st28" cx="1284.8" cy="1477.1" rx="33.3" ry="116"/>
				
					<ellipse transform="matrix(0.7532 -0.6578 0.6578 0.7532 -654.5227 1209.8156)" class="st28" cx="1284.8" cy="1477.1" rx="116" ry="33.3"/>
			</g>
		</g>
		<g>
			<path class="st20" d="M1037.5,1669.3l-279.8-135.6l-63.7,2.1l39,50.4l276.6,139.5c16.1,8.1,35.6,1.1,42.9-15.3v0
				C1059.5,1694.9,1052.8,1676.7,1037.5,1669.3z"/>
			<path class="st26" d="M1055.3,1697.6c0,4.3-0.9,8.6-2.7,12.8c-7.3,16.4-26.9,23.4-42.9,15.3l-276.6-139.5l-39-50.4l29.5-0.9
				l18.6,24.1l276.6,139.5c12.4,6.2,26.8,3.5,36.2-5.6C1055.2,1694.4,1055.3,1696,1055.3,1697.6z"/>
			<path class="st29" d="M721.2,1534.9c0,0,4.6,16.6-10.8,22.1l-17.5-17.8c-2.8-2.9-0.5-7.7,3.6-7.3L721.2,1534.9z"/>
		</g>
		<path class="st20" d="M604.2,690.8v490.8c0,14,13,24.3,26.6,21.2l786.4-181.6c12-2.8,20.6-13.5,20.6-25.8V513.1
			c0-20.1-18.7-35-38.3-30.5l-771,177.8C614.3,663.6,604.2,676.3,604.2,690.8z"/>
		<polygon class="st27" points="656.6,698.3 656.6,1092.4 1385.3,925.2 1385.3,531.4 		"/>
		<path class="st3" d="M1437.8,958v40.1c0,10.8-7.4,20.1-17.9,22.5L631,1202.7c-13.7,3.2-26.8-7.3-26.8-21.3v-31.7L1437.8,958z"/>
		
			<ellipse transform="matrix(0.2046 -0.9789 0.9789 0.2046 41.1867 1667.2557)" class="st30" cx="1046.4" cy="808.3" rx="57.3" ry="199.8"/>
		
			<ellipse transform="matrix(0.8368 -0.5475 0.5475 0.8368 -271.7675 704.8552)" class="st30" cx="1046.4" cy="808.3" rx="199.8" ry="57.3"/>
		<circle class="st4" cx="1045.9" cy="1076.5" r="18.7"/>
		<circle class="st7" cx="1083.7" cy="1067.1" r="9.3"/>
		<circle class="st7" cx="1008.5" cy="1085.8" r="9.3"/>
		<g>
			<path class="st14" d="M60.2,1506.6l0,45.2c0,17.9,8.6,34.6,23.1,45.1l307.4,220.7c13.1,9.4,29.6,12.6,45.2,8.9l278.7-66.6
				c19.6-4.7,33.4-22.4,33-42.6l-0.7-40.3l-328.3,80L60.2,1506.6z"/>
			<path class="st15" d="M740.1,1656c12.8,7.6,9.9,26.9-4.6,30.4l-75.1,18.1l-213.2,51.4c-19.4,4.7-39.9,0.9-56.3-10.5l-22.4-15.5
				l-44.8-31.1l-12.2-8.5l-18-12.5l-219-152l-3.1-2.2l-4-2.8c-11.8-8.2-8.4-26.4,5.6-29.8l249-60.1c17.7-4.3,36.4-1.5,52.1,7.8
				l11.1,6.6l5.5,3.2l33.8,20.1l34.5,20.5l178.9,106.1l20.5,12.2l9.8,5.8l53.2,31.5L740.1,1656z"/>
			<path class="st0" d="M747.4,1702.7L428.2,1776c-6,1.4-10.3,6.7-10.3,12.9l0,0c0,8.5,7.9,14.8,16.3,12.9l306.2-70.9
				c4.1-1,7-4.6,7-8.9V1702.7z"/>
			<polygon class="st9" points="477.7,1500 144.7,1574.6 144.7,1640.9 197.2,1678.6 199.2,1613.5 540.1,1537.4 			"/>
			<polygon class="st6" points="144.7,1574.6 199.2,1613.5 197.2,1678.6 144.7,1640.9 			"/>
		</g>
		<g>
			<polyline class="st2" points="913.9,1777.4 907.2,1779.1 825.7,1799.1 			"/>
			<g>
				<path class="st31" d="M937.2,1810.2c0,10.6-7.3,19.8-17.6,22.2l-108.9,25.4c-1.9,0.4-3.9,0.6-5.8,0.6v-47.2l132.3-30.6
					L937.2,1810.2z"/>
				<path class="st32" d="M804.9,1811.2v47.2c-3.6-0.1-7.1-1-10.3-2.8l-47.1-25.7c-7.3-4-11.9-11.7-11.9-20l0-26.3l65.7,28.3
					L804.9,1811.2z"/>
				<path class="st12" d="M930.3,1788.1l-119.7,26.3c-8.3,1.8-17,0.9-24.8-2.6l-45.1-20.4c-7.6-3.4-6.6-14.5,1.5-16.5l112.9-27.9
					c8.4-2.1,17.3-1.3,25.3,2.1l11,4.8v4l24.2,10.9l6.6-1.6l9.7,4.2C939.8,1774.9,938.7,1786.3,930.3,1788.1z"/>
				<polygon class="st1" points="915.9,1769 836.4,1788.4 812.1,1776.1 807.7,1773.9 885.6,1755.3 885.6,1755.3 891.5,1757.9 
					915.7,1768.9 				"/>
				<polygon class="st31" points="891.5,1753.9 891.5,1758 812.1,1776.1 807.7,1773.9 885.6,1755.3 				"/>
				
					<ellipse transform="matrix(0.7636 -0.6457 0.6457 0.7636 -950.6127 961.382)" class="st33" cx="837.7" cy="1779" rx="3.6" ry="4.1"/>
				<g>
					<path class="st34" d="M903.1,1763.2c-0.2,0.5-0.6,0.8-1.1,1l-56.1,15.4c-0.2,0-0.3,0.1-0.5,0.1c-0.8,0-1.5-0.5-1.7-1.3
						c-0.3-0.9,0.3-1.9,1.2-2.2l54.1-14.8L903.1,1763.2z"/>
				</g>
			</g>
			<path class="st4" d="M593.5,1874.7v45.2c-6.1-0.4-12.2-2-17.7-4.8l-38.4-19.3c-5-2.5-8.2-7.7-8.2-13.3v-32.7l58.6,26.1
				L593.5,1874.7z"/>
			<path class="st7" d="M727.1,1879.2c0,7-4.8,13-11.5,14.5l-108.5,25.1c-4.5,1-9.1,1.4-13.6,1.1v-45.2l133.6-27.7L727.1,1879.2z"/>
			<path class="st3" d="M535.1,1859.6l39.6,18.8c8.3,3.9,17.6,5,26.6,3.1l117.6-25.2c9.8-2.1,11.2-15.4,2.1-19.6l-46.5-21.2
				c-8.6-3.9-18.2-4.8-27.4-2.5L537,1840.1C527.6,1842.5,526.3,1855.4,535.1,1859.6z"/>
			<polygon class="st22" points="578.4,1829.9 656.6,1869.6 656.6,1907.4 694.9,1898.5 694.9,1861.4 617.5,1820.2 			"/>
			<polyline class="st35" points="656.6,1869.6 694.9,1861.4 694.9,1898.5 656.6,1907.4 656.6,1869.6 			"/>
		</g>
		<path class="st17" d="M1332,148.8c-5.8-2.8-12.3-4.2-18.7-4.2c-9.6,0-19.1,3.1-26,9c-18.5,15.7-23.6,38.4-13.1,58.2l29.6,47.5
			c2.6,4.2,8.8,3.9,11-0.6l32.1-65.7c2.7-5.2,3.8-10.3,3.8-15.1C1350.6,164.7,1341.9,153.7,1332,148.8z M1330.3,185
			c-2,11.4-12.9,20.7-24.3,20.7c-11.4,0-19-9.3-17-20.7c2-11.4,12.9-20.7,24.3-20.7C1324.7,164.4,1332.3,173.6,1330.3,185z"/>
		
			<ellipse transform="matrix(0.9654 -0.2607 0.2607 0.9654 -28.069 351.2375)" class="st17" cx="1310.2" cy="281.4" rx="30.3" ry="7.2"/>
		<path class="st0" d="M1343.3,152.1c-5.8-2.8-12.3-4.2-18.7-4.2c-9.6,0-19.1,3.1-26,9c-18.5,15.7-23.6,38.4-13.1,58.2l29.6,47.5
			c2.6,4.2,8.8,3.9,11-0.6l32.1-65.7c2.7-5.2,3.8-10.3,3.8-15.1C1361.9,168,1353.2,157,1343.3,152.1z M1341.7,188.3
			c-2,11.4-12.9,20.7-24.3,20.7c-11.4,0-19-9.3-17-20.7c2-11.4,12.9-20.7,24.3-20.7C1336,167.7,1343.7,176.9,1341.7,188.3z"/>
		
			<ellipse transform="matrix(0.9654 -0.2607 0.2607 0.9654 -28.5394 354.306)" class="st0" cx="1321.5" cy="284.7" rx="30.3" ry="7.2"/>
		<g>
			<path class="st6" d="M1805.5,490.7l-0.1,67.9c0,0.7-0.5,1.4-1.2,1.6l-87.7,23.1c-2.4,0.6-4.8-1.2-4.8-3.7v-65.2
				c0-1.2,1.2-2,2.3-1.5l45.1,22.5c0.6,0.3,1.4,0.2,1.9-0.4l41.6-45.5C1803.7,488.6,1805.5,489.3,1805.5,490.7z"/>
			<path class="st6" d="M1715.4,504.7l42-44.4c0.5-0.5,1.2-0.7,1.9-0.3l44,22.2c1.3,0.7,1.2,2.6-0.3,3l-86,22.3
				C1715.5,507.8,1714.3,505.9,1715.4,504.7z"/>
			<path class="st0" d="M1810.9,496.1l-0.1,67.9c0,0.7-0.5,1.4-1.2,1.6l-87.7,23.1c-2.4,0.6-4.8-1.2-4.8-3.7v-65.2
				c0-1.2,1.2-2,2.3-1.5l45.1,22.5c0.6,0.3,1.4,0.2,1.9-0.4l41.6-45.5C1809.1,493.9,1810.9,494.6,1810.9,496.1z"/>
			<path class="st0" d="M1718.3,510.3l42-44.4c0.5-0.5,1.2-0.7,1.9-0.3l44,22.2c1.3,0.7,1.2,2.6-0.3,3l-86,22.3
				C1718.4,513.5,1717.2,511.5,1718.3,510.3z"/>
		</g>
		<path class="st11" d="M264.9,893.6l-25-20.4c7.7-9.4,12.9-20.4,14.9-32c3-16.7-1-32.5-11-44.5c-9.9-11.8-24.4-18.2-40.9-18.2
			c-16,0-32,6.2-45.2,17.3c-13.1,11.1-21.9,26-24.7,41.9c-3,16.7,1,32.5,11,44.5c9.9,11.8,24.4,18.2,40.9,18.2
			c13.1,0,26.2-4.1,37.7-11.7l27.7,22.6c2.1,1.7,4.7,2.6,7.3,2.6c3.3,0,6.6-1.4,8.9-4.2C270.6,904.9,269.8,897.7,264.9,893.6z
			 M159.4,869.5c-6.2-7.4-8.5-17.4-6.6-28.2c4.2-23.6,26.6-42.7,50.1-42.7c10.5,0,19.5,3.9,25.5,11.1c6.2,7.4,8.5,17.4,6.6,28.2v0
			c-4.2,23.6-26.6,42.7-50.1,42.7C174.5,880.6,165.4,876.6,159.4,869.5z"/>
		<path class="st0" d="M273.4,900.6l-25-20.4c7.7-9.4,12.9-20.4,14.9-32c3-16.7-1-32.5-11-44.5c-9.9-11.8-24.4-18.2-40.9-18.2
			c-16,0-32,6.2-45.2,17.3c-13.1,11.1-21.9,26-24.7,41.9c-3,16.7,1,32.5,11,44.5c9.9,11.8,24.4,18.2,40.9,18.2
			c13.1,0,26.2-4.1,37.7-11.7l27.7,22.6c2.1,1.7,4.7,2.6,7.3,2.6c3.3,0,6.6-1.4,8.9-4.2C279,911.9,278.3,904.7,273.4,900.6z
			 M167.9,876.5c-6.2-7.4-8.5-17.4-6.6-28.2c4.2-23.6,26.6-42.7,50.1-42.7c10.5,0,19.5,3.9,25.5,11.1c6.2,7.4,8.5,17.4,6.6,28.2v0
			c-4.2,23.6-26.6,42.7-50.1,42.7C183,887.6,173.9,883.6,167.9,876.5z"/>
	</g>
</g>
</svg>
